<svg width="146" height="24" viewBox="0 0 146 24" fill="none" xmlns="http://www.w3.org/2000/svg">
  <path fill-rule="evenodd" clip-rule="evenodd" d="M142.647 8.73609H130.668V20.7156H142.647V8.73609ZM127.673 5.74121V23.7105H145.642V5.74121H127.673Z" fill="#CECECE"/>
  <path d="M0.434258 1.56333H16.994C17.7853 1.56333 18.4608 1.48613 19.0205 1.33173C19.5995 1.15802 20.0048 0.974668 20.2364 0.781665C20.4873 0.588661 20.7286 0.414958 20.9602 0.260555C21.1918 0.0868517 21.3945 0 21.5682 0C21.9542 0 22.1472 0.241254 22.1472 0.723763V9.61158L23.0736 8.82992C23.8456 8.193 24.4536 7.7105 24.8975 7.38239C25.3414 7.05428 25.8914 6.75513 26.5476 6.48492C27.2039 6.19542 27.8601 6.05066 28.5163 6.05066C29.6936 6.05066 30.62 6.45597 31.2955 7.26659C31.9903 8.0772 32.3378 9.11942 32.3378 10.3932V20.7286C32.3378 21.5778 32.4922 22.1665 32.801 22.4946C33.1098 22.8034 33.6598 22.9578 34.4511 22.9578C34.7985 22.9578 34.9723 23.0929 34.9723 23.3631C34.9723 23.5947 34.8275 23.7105 34.538 23.7105H26.6924C26.4029 23.7105 26.2581 23.5947 26.2581 23.3631C26.2581 23.0929 26.4318 22.9578 26.7793 22.9578C27.3969 22.9578 27.8504 22.7744 28.1399 22.4077C28.4294 22.041 28.6417 21.3076 28.7768 20.2075C28.9312 19.0881 29.0084 17.3896 29.0084 15.1122C29.0084 13.1628 28.9023 11.6574 28.69 10.5959C28.497 9.53438 28.2461 8.84922 27.9373 8.54041C27.6285 8.2316 27.2039 8.0772 26.6634 8.0772C26.4897 8.0772 26.3064 8.0965 26.1134 8.1351C25.9397 8.1544 25.7467 8.22195 25.5344 8.33776C25.3221 8.45356 25.1387 8.55006 24.9843 8.62726C24.8492 8.68516 24.6369 8.82027 24.3474 9.03257C24.0772 9.24487 23.8745 9.40893 23.7394 9.52473C23.6043 9.62123 23.3438 9.82388 22.9578 10.1327C22.5718 10.4415 22.3016 10.6538 22.1472 10.7696V15.778C22.1472 18.4029 22.1954 20.0531 22.2919 20.7286C22.4077 21.655 22.5814 22.263 22.813 22.5525C23.0639 22.8227 23.5947 22.9578 24.4053 22.9578C24.7527 22.9578 24.9264 23.0929 24.9264 23.3631C24.9264 23.5947 24.7817 23.7105 24.4922 23.7105H16.4729C16.1834 23.7105 16.0386 23.5947 16.0386 23.3631C16.0386 23.0929 16.2123 22.9578 16.5597 22.9578C17.3703 22.9578 17.9204 22.8034 18.2099 22.4946C18.5187 22.1858 18.7117 21.5971 18.7889 20.7286C18.9047 19.1074 18.9626 17.4572 18.9626 15.778V6.48492C18.9626 4.92159 18.8468 3.90832 18.6152 3.44512C18.4029 2.96261 17.8914 2.72135 17.0808 2.72135H11.0012V13.6936C11.0012 17.1677 11.0591 19.4451 11.1749 20.5259C11.2714 21.3945 11.5609 22.0121 12.0434 22.3788C12.5452 22.7455 13.3269 22.9288 14.3884 22.9288C14.7551 22.9288 14.9385 23.0736 14.9385 23.3631C14.9385 23.5947 14.7937 23.7105 14.5042 23.7105H4.13993C3.85042 23.7105 3.70567 23.5947 3.70567 23.3631C3.70567 23.0736 3.87937 22.9288 4.22678 22.9288C5.3462 22.9288 6.13751 22.7455 6.60072 22.3788C7.06393 22.0121 7.33414 21.3945 7.41134 20.5259C7.52714 18.9047 7.58504 16.6176 7.58504 13.6647V2.72135H4.92159C3.70567 2.72135 2.7117 3.16526 1.93969 4.05308C1.16767 4.94089 0.781665 5.88661 0.781665 6.89023C0.781665 7.14113 0.636912 7.26659 0.347407 7.26659C0.115802 7.26659 0 7.15078 0 6.91918V2.02654C0 1.83353 0.0289505 1.70808 0.0868516 1.65018C0.164053 1.59228 0.279855 1.56333 0.434258 1.56333Z" fill="#CECECE"/>
  <path d="M49.1103 19.0495C49.1103 20.1689 48.5795 21.2786 47.518 22.3788C46.4565 23.4596 44.9318 24 42.9438 24C40.705 24 38.9197 23.2859 37.588 21.8577C36.2563 20.4101 35.5904 18.3064 35.5904 15.5464C35.5904 12.7479 36.2756 10.4704 37.6459 8.71411C39.0162 6.93848 40.9848 6.05066 43.5518 6.05066C44.208 6.05066 44.8353 6.14717 45.4336 6.34017C46.0512 6.53317 46.6399 6.83233 47.1996 7.23764C47.7786 7.64294 48.2418 8.23161 48.5892 9.00362C48.9366 9.77563 49.1103 10.6731 49.1103 11.696C49.1103 12.2171 48.9752 12.5838 48.705 12.7961C48.4348 13.0084 47.9812 13.1146 47.3443 13.1146H38.9776C38.9776 15.8359 39.4408 17.959 40.3672 19.4837C41.2936 21.0084 42.5578 21.7708 44.1598 21.7708C45.202 21.7708 46.0608 21.5682 46.7364 21.1628C47.4312 20.7382 48.0391 19.9952 48.5602 18.9337C48.6374 18.7793 48.7436 18.7021 48.8787 18.7021C49.0331 18.7021 49.1103 18.8179 49.1103 19.0495ZM42.9728 6.97708C41.8341 6.97708 40.9366 7.48854 40.2804 8.51146C39.6435 9.51508 39.2285 10.7986 39.0355 12.3619L44.3624 11.9855C44.8063 11.9662 45.1055 11.8697 45.2599 11.696C45.4143 11.5223 45.4915 11.2618 45.4915 10.9144C45.4915 8.28951 44.6519 6.97708 42.9728 6.97708Z" fill="#CECECE"/>
  <path d="M57.7387 24C55.4419 24 53.6567 23.2859 52.3828 21.8577C51.1283 20.4101 50.5011 18.3643 50.5011 15.7201C50.5011 12.5163 51.2441 10.1037 52.7302 8.48251C54.2357 6.86128 56.2333 6.05066 58.723 6.05066C61.0005 6.05066 62.7761 6.80338 64.0499 8.30881C65.343 9.79493 65.9896 11.8601 65.9896 14.5042C65.9896 17.6888 65.2369 20.0724 63.7315 21.655C62.2453 23.2183 60.2477 24 57.7387 24ZM58.5204 22.9867C59.9486 22.9867 60.9522 22.3402 61.5312 21.047C62.1295 19.7346 62.4287 17.8914 62.4287 15.5175C62.4287 12.9698 62.0716 10.924 61.3575 9.37998C60.6627 7.81665 59.5819 7.03498 58.115 7.03498C56.7061 7.03498 55.6735 7.7298 55.0173 9.11942C54.3611 10.4897 54.033 12.3426 54.033 14.6779C54.033 17.187 54.3997 19.2039 55.1331 20.7286C55.8859 22.234 57.0149 22.9867 58.5204 22.9867Z" fill="#CECECE"/>
  <path d="M72.8287 10.9723C73.5814 7.69119 75.0096 6.05066 77.1134 6.05066C77.8854 6.05066 78.4934 6.24367 78.9373 6.62968C79.3812 7.01568 79.6031 7.60434 79.6031 8.39566C79.6031 9.16767 79.3233 9.71773 78.7636 10.0458C78.2038 10.3739 77.6152 10.538 76.9976 10.538C76.9976 9.30277 76.573 8.68516 75.7238 8.68516C74.9131 8.68516 74.2087 9.31242 73.6104 10.5669C73.0314 11.8022 72.7418 13.269 72.7418 14.9674C72.7418 17.5923 72.7998 19.4451 72.9156 20.5259C73.0314 21.4138 73.3209 22.041 73.7841 22.4077C74.2473 22.7744 75.0579 22.9578 76.2159 22.9578C76.5633 22.9578 76.737 23.0929 76.737 23.3631C76.737 23.5947 76.5923 23.7105 76.3028 23.7105H67.2702C66.9807 23.7105 66.8359 23.5947 66.8359 23.3631C66.8359 23.0929 67.0096 22.9578 67.3571 22.9578C68.0905 22.9578 68.6212 22.7744 68.9493 22.4077C69.2967 22.0217 69.509 21.3945 69.5862 20.5259C69.702 18.9047 69.7599 17.3221 69.7599 15.778V14.5332C69.7599 13.684 69.7503 12.9891 69.731 12.4487C69.7117 11.889 69.6441 11.3004 69.5283 10.6828C69.4318 10.0458 69.2967 9.55368 69.123 9.20627C68.9493 8.83957 68.6984 8.54041 68.3703 8.30881C68.0422 8.0579 67.6466 7.93245 67.1833 7.93245H66.4885C66.199 7.93245 66.0543 7.8263 66.0543 7.61399C66.0543 7.42099 66.199 7.28589 66.4885 7.20869C67.0289 7.05428 67.9361 6.88058 69.2099 6.68758C70.4837 6.49457 71.2557 6.39807 71.5259 6.39807C72.3944 6.39807 72.8287 7.9228 72.8287 10.9723Z" fill="#CECECE"/>
  <path d="M92.8245 19.0495C92.8245 20.1689 92.2937 21.2786 91.2322 22.3788C90.1707 23.4596 88.646 24 86.658 24C84.4192 24 82.6339 23.2859 81.3022 21.8577C79.9704 20.4101 79.3046 18.3064 79.3046 15.5464C79.3046 12.7479 79.9897 10.4704 81.3601 8.71411C82.7304 6.93848 84.699 6.05066 87.266 6.05066C87.9222 6.05066 88.5494 6.14717 89.1478 6.34017C89.7654 6.53317 90.354 6.83233 90.9137 7.23764C91.4928 7.64294 91.956 8.23161 92.3034 9.00362C92.6508 9.77563 92.8245 10.6731 92.8245 11.696C92.8245 12.2171 92.6894 12.5838 92.4192 12.7961C92.149 13.0084 91.6954 13.1146 91.0585 13.1146H82.6918C82.6918 15.8359 83.155 17.959 84.0814 19.4837C85.0078 21.0084 86.272 21.7708 87.8739 21.7708C88.9162 21.7708 89.775 21.5682 90.4505 21.1628C91.1453 20.7382 91.7533 19.9952 92.2744 18.9337C92.3516 18.7793 92.4578 18.7021 92.5929 18.7021C92.7473 18.7021 92.8245 18.8179 92.8245 19.0495ZM86.687 6.97708C85.5482 6.97708 84.6508 7.48854 83.9946 8.51146C83.3577 9.51508 82.9427 10.7986 82.7497 12.3619L88.0766 11.9855C88.5205 11.9662 88.8197 11.8697 88.9741 11.696C89.1285 11.5223 89.2057 11.2618 89.2057 10.9144C89.2057 8.28951 88.3661 6.97708 86.687 6.97708Z" fill="#CECECE"/>
  <path d="M109.241 9.64053L110.225 8.82992C110.399 8.69481 110.688 8.45356 111.093 8.10615C111.499 7.75875 111.779 7.52714 111.933 7.41134C112.087 7.29554 112.329 7.12183 112.657 6.89023C113.004 6.65863 113.284 6.50422 113.496 6.42702C113.728 6.33052 113.998 6.24367 114.307 6.16647C114.635 6.08926 114.973 6.05066 115.32 6.05066C116.498 6.05066 117.405 6.45597 118.042 7.26659C118.698 8.0579 119.026 9.10012 119.026 10.3932V20.7286C119.026 21.5778 119.18 22.1665 119.489 22.4946C119.798 22.8034 120.348 22.9578 121.139 22.9578C121.487 22.9578 121.66 23.0929 121.66 23.3631C121.66 23.5947 121.516 23.7105 121.226 23.7105H113.38C113.091 23.7105 112.946 23.5947 112.946 23.3631C112.946 23.0929 113.12 22.9578 113.467 22.9578C114.085 22.9578 114.539 22.7744 114.828 22.4077C115.118 22.041 115.33 21.3076 115.465 20.2075C115.619 19.0881 115.697 17.3896 115.697 15.1122C115.697 13.1628 115.6 11.6671 115.407 10.6248C115.214 9.58263 114.973 8.91677 114.683 8.62726C114.413 8.33776 114.027 8.193 113.525 8.193C113.332 8.193 113.13 8.22195 112.917 8.27986C112.705 8.33776 112.522 8.40531 112.367 8.48251C112.213 8.55971 111.991 8.69481 111.701 8.88782C111.431 9.08082 111.219 9.24487 111.064 9.37998C110.91 9.49578 110.63 9.71773 110.225 10.0458C109.82 10.3546 109.511 10.5959 109.298 10.7696V20.7286C109.298 21.5778 109.453 22.1665 109.762 22.4946C110.07 22.8034 110.621 22.9578 111.412 22.9578C111.759 22.9578 111.933 23.0929 111.933 23.3631C111.933 23.5947 111.788 23.7105 111.499 23.7105H103.653C103.364 23.7105 103.219 23.5947 103.219 23.3631C103.219 23.0929 103.393 22.9578 103.74 22.9578C104.358 22.9578 104.811 22.7744 105.101 22.4077C105.39 22.041 105.602 21.3076 105.738 20.2075C105.892 19.0881 105.969 17.3896 105.969 15.1122C105.969 13.1628 105.873 11.6671 105.68 10.6248C105.487 9.58263 105.245 8.91677 104.956 8.62726C104.686 8.33776 104.3 8.193 103.798 8.193C103.605 8.193 103.402 8.22195 103.19 8.27986C102.978 8.33776 102.794 8.40531 102.64 8.48251C102.485 8.55971 102.263 8.69481 101.974 8.88782C101.704 9.08082 101.491 9.24487 101.337 9.37998C101.183 9.49578 100.903 9.71773 100.498 10.0458C100.092 10.3546 99.7834 10.5959 99.5711 10.7696C99.5518 11.4065 99.5421 12.661 99.5421 14.5332V15.778C99.5421 18.1713 99.6 19.7732 99.7158 20.5838C99.793 21.1242 99.8509 21.5006 99.8895 21.7129C99.9281 21.9252 100.015 22.1568 100.15 22.4077C100.305 22.6393 100.507 22.7937 100.758 22.8709C101.009 22.9288 101.356 22.9578 101.8 22.9578C102.167 22.9578 102.35 23.0929 102.35 23.3631C102.35 23.5947 102.206 23.7105 101.916 23.7105H93.9547C93.6652 23.7105 93.5204 23.5947 93.5204 23.3631C93.5204 23.0929 93.6941 22.9578 94.0415 22.9578C95.1803 22.9385 95.8654 22.5139 96.097 21.684C96.3286 20.8347 96.4444 18.8661 96.4444 15.778V14.3884C96.4444 13.6357 96.4348 13.0567 96.4155 12.6514C96.4155 12.2268 96.3962 11.725 96.3576 11.146C96.3383 10.5476 96.2804 10.0941 96.1839 9.78528C96.1067 9.47648 96.0005 9.15802 95.8654 8.82992C95.7303 8.50181 95.5566 8.27021 95.3443 8.1351C95.132 8 94.8715 7.93245 94.5626 7.93245H93.752C93.5011 7.93245 93.3757 7.83595 93.3757 7.64294C93.3757 7.39204 94.0705 7.12183 95.4601 6.83233C96.869 6.54282 97.9016 6.39807 98.5578 6.39807C99.2912 6.39807 99.6579 6.87093 99.6579 7.81665C99.6579 8.56936 99.6483 9.14837 99.629 9.55368L100.498 8.82992C100.594 8.75271 100.835 8.55006 101.221 8.22195C101.627 7.87455 101.877 7.66224 101.974 7.58504C102.07 7.50784 102.273 7.35344 102.582 7.12183C102.91 6.87093 103.151 6.71653 103.306 6.65863C103.479 6.58142 103.701 6.48492 103.972 6.36912C104.242 6.23402 104.502 6.14717 104.753 6.10857C105.023 6.06996 105.303 6.05066 105.593 6.05066C106.635 6.05066 107.465 6.37877 108.083 7.03498C108.719 7.69119 109.105 8.55971 109.241 9.64053Z" fill="#CECECE"/>
</svg>
